<?xml version="1.0"?>
<!--Icons from directory ""-->
<svg xmlns="http://www.w3.org/2000/svg" width="300" height="428" viewBox="0 0 300 428"><svg id="icon_best" viewBox="0 0 55 54.6" width="32" height="32" y="0"><style>.st0{fill:#1ea782}</style><path class="st0" d="M13.2 29.7c-1.3 0-2.4 1.1-2.4 2.4 0 1.3 1.1 2.4 2.4 2.4 1.3 0 2.4-1.1 2.4-2.4 0-1.3-1.1-2.4-2.4-2.4zm0 3.3c-.5 0-.8-.4-.8-.8 0-.5.4-.8.8-.8.5 0 .8.4.8.8s-.4.8-.8.8zM35.3 45.3c-.1-.3-.4-.6-.8-.6h-4.8l-1.5-4.6c-.1-.3-.4-.6-.8-.6-.3 0-.7.2-.8.6l-1.5 4.6h-4.8c-.3 0-.7.2-.8.6-.1.3 0 .7.3.9l3.9 2.8-1.5 4.6c-.1.3 0 .7.3.9.3.2.7.2 1 0l3.9-2.8 3.9 2.8c.3.2.7.2 1 0 .2-.2.3-.6.2-.9L31.1 49l3.9-2.8c.3-.2.4-.6.3-.9zM29.7 48c-.3.2-.4.6-.3.9l.9 2.8L28 50c-.3-.2-.7-.2-.9 0l-2.3 1.7.9-2.8c.1-.3 0-.7-.3-.9l-2.3-1.7H26c.3 0 .7-.2.8-.6l.9-2.8.9 2.8c.1.3.4.6.8.6h2.9L29.7 48zM55 45.3c-.1-.3-.4-.6-.8-.6h-4.8l-1.5-4.6c-.1-.3-.4-.6-.8-.6-.3 0-.7.2-.8.6l-1.5 4.6H40c-.3 0-.7.2-.8.6-.1.3 0 .7.3.9l3.9 2.8-1.4 4.6c-.1.3 0 .7.3.9.3.2.7.2 1 0l3.9-2.8 3.9 2.8c.3.2.7.2 1 0 .2-.2.3-.6.2-.9L50.8 49l3.9-2.8c.3-.2.4-.6.3-.9zM49.4 48c-.3.2-.4.6-.3.9l.9 2.8-2.4-1.7c-.3-.2-.7-.2-.9 0l-2.3 1.7.9-2.8c.1-.3 0-.7-.3-.9l-2.3-1.7h2.9c.3 0 .7-.2.8-.6l.9-2.8.9 2.8c.1.3.4.6.8.6h2.9L49.4 48zM15.7 45.3c-.1-.3-.4-.6-.8-.6h-4.8l-1.5-4.6c-.1-.3-.4-.6-.8-.6-.3 0-.7.2-.8.6l-1.5 4.6H.8c-.3 0-.7.2-.8.6-.1.3 0 .7.3.9L4.2 49l-1.5 4.6c-.1.3 0 .7.3.9.3.2.7.2.9 0l3.9-2.8 3.9 2.8c.3.2.7.2 1 0 .2-.2.3-.6.2-.9L11.5 49l3.9-2.8c.3-.2.4-.6.3-.9zM10.1 48c-.3.2-.4.6-.3.9l.9 2.8L8.3 50c-.3-.2-.7-.2-.9 0L5 51.7l.9-2.8c.1-.3 0-.7-.3-.9l-2.3-1.7h2.9c.3 0 .7-.2.8-.6l.9-2.7.9 2.8c.1.3.4.6.8.6h2.9L10.1 48z"/><path class="st0" d="M48.5 20.1c.8-.7 1.4-1.7 1.4-2.9 0-2-1.6-3.7-3.7-3.7h-13c.4-.9.9-2.2 1.1-4.1.6-4.3-.3-6.6-1.2-7.8-.8-1-1.8-1.6-2.9-1.7-1-.1-1.9.7-1.9 1.6-.2 1.6-.7 5.8-1.5 7.4-2 4.1-6.9 6.5-8.4 7.2-.5-.5-1.2-.7-1.9-.7H9.9c-1.7 0-3 1.3-3 3v16.4c0 1.7 1.3 3 3 3h6.6c.9 0 1.7-.4 2.2-1 .9.5 2.2 1.1 4.1 1.1h21.1c2 0 3.7-1.6 3.7-3.7 0-.9-.3-1.8-.9-2.4 1.2-.6 2.1-1.8 2.1-3.3 0-.9-.3-1.8-.9-2.4 1.2-.6 2.1-1.8 2.1-3.3-.2-1-.7-2-1.5-2.7zM16.4 36.3H9.9c-.8 0-1.4-.6-1.4-1.4V18.5c0-.8.6-1.4 1.4-1.4h6.6c.4 0 .7.2 1 .4v18c0 .1 0 .2.1.3-.4.3-.7.5-1.2.5zm26.4-15.4h3.4c1.1 0 2 .9 2 2s-.9 2-2 2h-3.4c-.4 0-.8.4-.8.8s.4.8.8.8H45c1.1 0 2 .9 2 2s-.9 2-2 2h-2.9c-.4 0-.8.4-.8.8s.4.8.8.8h1.7c1.1 0 2 .9 2 2s-.9 2-2 2h-21c-1.7 0-2.8-.6-3.4-1 0-.2.1-.4.1-.5V18.5c0-.3 0-.6-.1-.9 1.9-.9 6.7-3.4 8.9-7.8 1.1-2.2 1.6-7.8 1.7-8v-.1-.1h.1c.5.1 1.2.3 1.9 1.1.7.9 1.4 2.8.9 6.6-.5 3.2-1.5 4.6-1.5 4.6-.4.5 0 1.3.6 1.3h14.4c1.1 0 2 .9 2 2s-.9 2-2 2H43c-.4 0-.8.4-.8.8-.2.6.1.9.6.9z"/></svg><svg xmlns:xlink="http://www.w3.org/1999/xlink" id="icon_ereferer-best" viewBox="0 0 48 55.8" width="32" height="32" y="32"><style>.st0{fill:#1ea782}.st2{clip-path:url(#icon_ereferer-best-SVGID_2_);fill:#1ab192}</style><path class="st0" d="M20.2 49.9c-.5 0-.9.4-.9.9s.4.9.9.9.9-.4.9-.9c.1-.5-.3-.9-.9-.9zM25.9 40.5H25v-6.6c0-.5-.4-.9-.9-.9h-1.9c-.5 0-.9.4-.9.9s.4.9.9.9h.9v5.6h-.9c-.5 0-.9.4-.9.9s.4.9.9.9H26c.5 0 .9-.4.9-.9-.1-.4-.5-.8-1-.8zM10.6 46.1c.5 0 .9-.4.9-.9v-3.8c0-.5-.4-.9-.9-.9H6.8c-.5 0-.9.4-.9.9s.4.9.9.9h2.8v1.9H6.8c-.5 0-.9.4-.9.9v3.8c0 .5.4.9.9.9h3.8c.5 0 .9-.4.9-.9s-.4-.9-.9-.9H7.8v-1.9h2.8zM41.2 42.4h-3.8c-.5 0-.9.4-.9.9s.4.9.9.9h2.8v1.9h-2.8c-.5 0-.9.4-.9.9s.4.9.9.9h2.8v1.9h-2.8c-.5 0-.9.4-.9.9s.4.9.9.9h3.8c.5 0 .9-.4.9-.9v-7.5c0-.4-.4-.8-.9-.8z"/><path class="st0" d="M47.1 38.6H32.4v-8.7c0-.5-.4-.9-.9-.9h-15c-.5 0-.9.4-.9.9v5H.9c-.5 0-.9.4-.9.9v19c0 .5.4.9.9.9h46.2c.5 0 .9-.4.9-.9V39.5c0-.5-.4-.9-.9-.9zM15.6 53.9H1.9V36.7h13.7v17.2zm15 0H17.4V30.8h13.1v23.1zm15.5 0H32.4V40.5h13.7v13.4z"/><path class="st0" d="M27.8 49.9H24c-.5 0-.9.4-.9.9s.4.9.9.9h3.8c.5 0 .9-.4.9-.9s-.4-.9-.9-.9z"/><path d="M13.2 27.2s3.5-12.5 11.7-20.5C27.2 4.5 32 3 31.7 3.2c-1.4 1.1-3.4-.3-6.8 4.7 0 0 9.4-2.8 11.5-3 0 0-14.4 4.6-15.3 8.1-1.4 1.6 8.2-2.3 11.7-3.3 0 0-.4 2.2-7.8 4.1-4.9-.3-6.8 4.7-6.8 4.7s6.5-2.7 9.1-3.5c0 0 .4.8 1.3.5 0 0-.1 2.5-7.4 2.5-.7 0-1.8.7-2.6 1.4s-5.4 7.8-5.4 7.8zm0 0" fill="#006053"/><defs><path id="icon_ereferer-best-SVGID_1_" d="M39.7 0s-1.6.1-3.3.5c-3.4.6-6.3 2-8.9 4-1.6 1.1-2.8 2-2.8 2l.6-.2c-4.2 3.9-7.1 9-9.1 13.2s-.8 1.9-.8 1.9c-1.4 3.3-2.1 5.7-2.1 5.7s1.5-2.3 3-4.4c.8-1.2 1.2-1.7 1.7-2.4.9-.8 1-.8 2.6-1.4 1.6-.6 3.1-.9 4.6-1.2 1.1-.3 2.6-.6 3.4-1.5.4-.4.8-1 .9-1.6 0-.1.1-.3 0-.5l.1-.4-6.2 1.5c.5-.3 2-1.1 3.1-1.3 1.6-.2 1.5-.2 1.8-.2 4.8-.6 4.6-4.1 4.6-4.1l-5.4.5c.5-.2 1.4-.4 2.7-.6 1.6-.2 1.6-.5 1.9-.5 4.8-.6 4.5-4.1 4.5-4.1l-5.1.4c.5-.3 1.2-.9 2.4-1.1.3 0 .5-.1.6-.1-.1 0-.1 0 0 0 4.6-.7 5.2-4.1 5.2-4.1zM29.4 5.5h.4-.4z"/></defs><clipPath id="icon_ereferer-best-SVGID_2_"><use xlink:href="#icon_ereferer-best-SVGID_1_" overflow="visible"/></clipPath><path class="st2" d="M12.3 22c-.8.8 1.5-.5 1.5-.5l-.6 4s.1-1.4 2.6-2.3c2.3-.8 4.2-4.2 5.3-4.4 1.6-.2 3.1-.8 3.4-.9 4.8-.5 4.8-3.8 4.8-3.8S16 15.3 12.3 22z"/><path class="st2" d="M15.6 15.6c-2.9 2.2-2 1.8-2 1.8l.7-.4c-4.3.5 1.1.2 1.1.2l-.6.5s3.1-1.6 4.8-2.2 3.4-1.2 4.9-1.5c1.8-.4 3-.7 3.3-.7 4.8-.6 5-3.5 5-3.5s-10.9 1.1-17.2 5.8z"/><path class="st2" d="M25.2 7.8c-2.6 1.1-6.9 4.1-6.9 4.1l-.5-1.7c-2.6.2 2.7.8 2.7.8l-.3.2s-6.7 5.4-2.4 2.4 9.1-3.9 10.7-4.2c1.8-.4 3.2-.7 3.5-.7 4.5-.8 4.6-3.8 4.6-3.8s-6.2 1.2-11.4 2.9z"/><path class="st2" d="M22.8 8.5s-1.2 0 .9-.7c2.8-1.7 4.5-2.2 6.8-2.8 4.6-.8 6.7-4.3 6.7-4.3s-1.9.6-4.5 1.3c-4 .9-9.9 6.5-9.9 6.5z"/></svg><svg xmlns:xlink="http://www.w3.org/1999/xlink" id="icon_ereferer" viewBox="0 0 55 52.2" width="32" height="32" y="64"><style>.st0{fill:#1ea782}.st2{clip-path:url(#icon_ereferer-SVGID_2_);fill:#1ab192}</style><path class="st0" d="M35.3 42.9c-.1-.3-.4-.6-.8-.6h-4.8l-1.5-4.6c-.1-.3-.4-.6-.8-.6-.3 0-.7.2-.8.6l-1.5 4.6h-4.8c-.3 0-.7.2-.8.6-.1.3 0 .7.3.9l3.9 2.8-1.5 4.6c-.1.3 0 .7.3.9.3.2.7.2 1 0l3.9-2.8 3.9 2.8c.3.2.7.2 1 0 .2-.2.3-.6.2-.9L31 46.6l3.9-2.8c.4-.2.5-.6.4-.9zm-5.6 2.8c-.3.2-.4.6-.3.9l.9 2.8-2.3-1.8c-.3-.2-.7-.2-.9 0l-2.3 1.7.9-2.8c.1-.3 0-.7-.3-.9L22.9 44h2.9c.3 0 .7-.2.8-.6l.9-2.8.9 2.8c.1.3.4.6.8.6h2.9l-2.4 1.7zM55 42.9c-.1-.3-.4-.6-.8-.6h-4.8l-1.5-4.6c-.1-.3-.4-.6-.8-.6-.3 0-.7.2-.8.6l-1.5 4.6H40c-.3 0-.7.2-.8.6-.1.3 0 .7.3.9l3.9 2.8-1.4 4.6c-.1.3 0 .7.3.9.3.2.7.2 1 0l3.9-2.8 3.9 2.8c.3.2.7.2 1 0 .2-.2.3-.6.2-.9l-1.5-4.6 3.9-2.8c.3-.2.4-.6.3-.9zm-5.6 2.8c-.3.2-.4.6-.3.9l.9 2.8-2.3-1.7c-.3-.2-.7-.2-.9 0l-2.3 1.7.9-2.8c.1-.3 0-.7-.3-.9L42.6 44h2.9c.3 0 .7-.2.8-.6l.9-2.8.9 2.8c.1.3.4.6.8.6h2.9l-2.4 1.7zM15.7 42.9c-.1-.3-.4-.6-.8-.6h-4.8l-1.5-4.6c-.1-.3-.4-.6-.8-.6-.3 0-.7.2-.8.6l-1.5 4.6H.8c-.3 0-.7.2-.8.6-.1.3 0 .7.3.9l3.9 2.8-1.5 4.6c-.1.3 0 .7.3.9.3.2.7.2.9 0l3.9-2.8 3.9 2.8c.3.2.7.2 1 0 .2-.2.3-.6.2-.9l-1.5-4.6 3.9-2.8c.4-.2.5-.6.4-.9zm-5.6 2.8c-.3.2-.4.6-.3.9l.9 2.8-2.3-1.7c-.3-.2-.7-.2-.9 0L5 49.3l.9-2.8c.1-.3 0-.7-.3-.9L3.3 44h2.9c.3 0 .7-.2.8-.6l.9-2.8.9 2.8c.1.3.4.6.7.6h2.9l-2.3 1.7z"/><path d="M12.6 38s4.9-17.5 16.3-28.7c3.2-3.1 10-5.2 9.5-4.8-1.9 1.5-4.7-.4-9.5 6.6 0 0 13.1-3.9 16.1-4.2 0 0-20.1 6.5-21.4 11.3-2 2.2 11.5-3.2 16.4-4.6 0 0-.6 3.1-10.9 5.7-6.8-.5-9.6 6.5-9.6 6.5S28.6 22 32.3 21c0 0 .6 1.1 1.8.6 0 0-.2 3.4-10.3 3.5-1 0-2.6.9-3.6 2-1 .9-7.6 10.9-7.6 10.9zm0 0" fill="#006053"/><defs><path id="icon_ereferer-SVGID_1_" d="M49.5 0s-2.2.2-4.7.7c-4.6.8-8.8 2.8-12.4 5.5-2.2 1.5-3.9 2.9-3.9 2.9l.8-.2c-5.8 5.5-10 12.6-12.7 18.4S15.5 30 15.5 30c-2 4.7-2.9 8-2.9 8s2.1-3.2 4.1-6.1c1.2-1.7 1.7-2.4 2.4-3.3 1.3-1.2 1.4-1.1 3.6-2 2.2-.9 4.3-1.2 6.5-1.7 1.6-.4 3.7-.9 4.8-2.1.6-.6 1.1-1.5 1.2-2.2 0-.2.1-.4.1-.6l.1-.6-8.7 2.1c.7-.4 2.8-1.6 4.4-1.8 2.2-.3 2.1-.3 2.5-.3 6.8-.9 6.5-5.7 6.5-5.7l-7.6.6c.7-.3 2-.5 3.8-.8 2.2-.3 2.2-.7 2.6-.7 6.8-.9 6.3-5.8 6.3-5.8l-7.2.5c.7-.4 1.7-1.3 3.4-1.5.4-.1.7-.1.9-.1h-.1C48.7 4.7 49.5 0 49.5 0zM35.1 7.7s.1 0 .2-.1h.4l-.6.1z"/></defs><clipPath id="icon_ereferer-SVGID_2_"><use xlink:href="#icon_ereferer-SVGID_1_" overflow="visible"/></clipPath><path class="st2" d="M11.2 30.8c-1.2 1.2 2.2-.6 2.2-.6l-.8 5.6s.2-2 3.7-3.2c3.3-1.1 5.9-5.9 7.4-6.1 2.3-.3 4.3-1.1 4.8-1.2 6.8-.7 6.7-5.3 6.7-5.3s-18.8 1.4-24 10.8z"/><path class="st2" d="M15.9 21.8c-4.1 3.1-2.8 2.5-2.8 2.5l1-.5c-6 .7 1.5.2 1.5.2l-.9.7s4.4-2.3 6.7-3.1c2.4-.8 4.7-1.6 6.9-2.1 2.6-.6 4.2-.9 4.6-1 6.8-.9 7-5 7-5s-15.2 1.7-24 8.3z"/><path class="st2" d="M29.2 11c-3.6 1.5-9.6 5.7-9.6 5.7l-.6-2.5c-3.6.3 3.7 1.1 3.7 1.1l-.4.3s-9.4 7.6-3.4 3.4 12.7-5.5 14.9-5.9c2.6-.5 4.4-.9 4.9-1 6.3-1.1 6.4-5.3 6.4-5.3S36.6 8.6 29.2 11z"/><path class="st2" d="M25.9 11.9s-1.7-.1 1.3-1c3.9-2.4 6.3-3.1 9.6-3.9 6.5-1.1 9.4-6 9.4-6s-2.7.8-6.4 1.8c-5.7 1.3-13.9 9.1-13.9 9.1z"/></svg><svg id="icon_no-selection" viewBox="0 0 52 52" width="32" height="32" y="96"><style>.st0{fill:#1ea782}</style><path class="st0" d="M10.8 12.3c-.2-.2-.5-.3-.8-.3s-.6.2-.8.4C6 16.2 4.3 21.1 4.3 26 4.3 37.9 14 47.7 26 47.7c4.9 0 9.8-1.7 13.6-4.8.2-.2.4-.5.4-.8s-.1-.6-.3-.8l-28.9-29zM26 45.5C15.2 45.5 6.5 36.8 6.5 26c0-4.1 1.2-8 3.6-11.3l27.2 27.2c-3.3 2.4-7.2 3.6-11.3 3.6z"/><path class="st0" d="M26 0C11.7 0 0 11.7 0 26s11.7 26 26 26 26-11.7 26-26S40.3 0 26 0zm0 49.8C12.9 49.8 2.2 39.1 2.2 26S12.9 2.2 26 2.2 49.8 12.9 49.8 26 39.1 49.8 26 49.8z"/><path class="st0" d="M26 4.3c-4.9 0-9.8 1.7-13.6 4.8-.3.3-.4.5-.4.8 0 .3.1.6.3.8l28.9 28.9c.2.2.5.3.8.3h.1c.3 0 .6-.2.8-.4 3.1-3.8 4.8-8.7 4.8-13.6 0-11.8-9.8-21.6-21.7-21.6zm15.9 33L14.7 10.1C18 7.7 21.9 6.5 26 6.5c10.8 0 19.5 8.7 19.5 19.5 0 4.1-1.2 8-3.6 11.3z"/></svg><svg width="300" height="300" viewBox="0 0 512 512" id="icon_user" y="128"><text transform="translate(168.783 543.81)"><tspan x="0" y="0" fill="#FF0" font-family="'Verdana-Bold'" font-size="20">simpleicon.com</tspan><tspan x="-159.59" y="24" fill="#FF0" font-family="'Verdana'" font-size="20">Collection Of Flat Icon, Symbols And Glyph Icons</tspan></text><path fill="#020201" d="M454.426 392.582c-5.439-16.32-15.298-32.782-29.839-42.362-27.979-18.572-60.578-28.479-92.099-39.085-7.604-2.664-15.33-5.568-22.279-9.7-6.204-3.686-8.533-11.246-9.974-17.886-.636-3.512-1.026-7.116-1.228-10.661 22.857-31.267 38.019-82.295 38.019-124.136 0-65.298-36.896-83.495-82.402-83.495-45.515 0-82.403 18.17-82.403 83.468 0 43.338 16.255 96.5 40.489 127.383-.221 2.438-.511 4.876-.95 7.303-1.444 6.639-3.77 14.058-9.97 17.743-6.957 4.133-14.682 6.756-22.287 9.42-31.521 10.605-64.119 19.957-92.091 38.529-14.549 9.58-24.403 27.159-29.838 43.479-5.597 16.938-7.886 37.917-7.541 54.917h411.932c.348-16.999-1.946-37.978-7.539-54.917z"/></svg></svg>
