<?xml version="1.0" encoding="utf-8"?>
<!-- Generator: Adobe Illustrator 20.1.0, SVG Export Plug-In . SVG Version: 6.00 Build 0)  -->
<svg version="1.1" id="Capa_1" xmlns="http://www.w3.org/2000/svg" xmlns:xlink="http://www.w3.org/1999/xlink" x="0px" y="0px"
	 viewBox="0 0 52 52" style="enable-background:new 0 0 52 52;" xml:space="preserve">
<style type="text/css">
	.st0{fill:#1EA782;}
</style>
<g>
	<g>
		<g>
			<path class="st0" d="M10.8,12.3C10.6,12.1,10.3,12,10,12s-0.6,0.2-0.8,0.4C6,16.2,4.3,21.1,4.3,26C4.3,37.9,14,47.7,26,47.7
				c4.9,0,9.8-1.7,13.6-4.8c0.2-0.2,0.4-0.5,0.4-0.8s-0.1-0.6-0.3-0.8L10.8,12.3z M26,45.5C15.2,45.5,6.5,36.8,6.5,26
				c0-4.1,1.2-8,3.6-11.3l27.2,27.2C34,44.3,30.1,45.5,26,45.5z"/>
			<path class="st0" d="M26,0C11.7,0,0,11.7,0,26s11.7,26,26,26s26-11.7,26-26S40.3,0,26,0z M26,49.8C12.9,49.8,2.2,39.1,2.2,26
				S12.9,2.2,26,2.2S49.8,12.9,49.8,26S39.1,49.8,26,49.8z"/>
			<path class="st0" d="M26,4.3c-4.9,0-9.8,1.7-13.6,4.8C12.1,9.4,12,9.6,12,9.9c0,0.3,0.1,0.6,0.3,0.8l28.9,28.9
				c0.2,0.2,0.5,0.3,0.8,0.3c0,0,0,0,0.1,0c0.3,0,0.6-0.2,0.8-0.4c3.1-3.8,4.8-8.7,4.8-13.6C47.7,14.1,37.9,4.3,26,4.3z M41.9,37.3
				L14.7,10.1C18,7.7,21.9,6.5,26,6.5c10.8,0,19.5,8.7,19.5,19.5C45.5,30.1,44.3,34,41.9,37.3z"/>
		</g>
	</g>
</g>
</svg>
