<?xml version="1.0" encoding="utf-8"?>
<!-- Generator: Adobe Illustrator 20.1.0, SVG Export Plug-In . SVG Version: 6.00 Build 0)  -->
<svg version="1.1" id="Capa_1" xmlns="http://www.w3.org/2000/svg" xmlns:xlink="http://www.w3.org/1999/xlink" x="0px" y="0px"
	 viewBox="0 0 48 55.8" style="enable-background:new 0 0 48 55.8;" xml:space="preserve">
<style type="text/css">
	.st0{fill:#1EA782;}
	.st1{fill:#006053;}
	.st2{clip-path:url(#SVGID_2_);fill:#1AB192;}
</style>
<g>
	<g>
		<path class="st0" d="M20.2,49.9c-0.5,0-0.9,0.4-0.9,0.9c0,0.5,0.4,0.9,0.9,0.9s0.9-0.4,0.9-0.9C21.2,50.3,20.8,49.9,20.2,49.9z"/>
	</g>
</g>
<g>
	<g>
		<path class="st0" d="M25.9,40.5h-0.9v-6.6c0-0.5-0.4-0.9-0.9-0.9h-1.9c-0.5,0-0.9,0.4-0.9,0.9c0,0.5,0.4,0.9,0.9,0.9h0.9v5.6h-0.9
			c-0.5,0-0.9,0.4-0.9,0.9c0,0.5,0.4,0.9,0.9,0.9h3.8c0.5,0,0.9-0.4,0.9-0.9C26.8,40.9,26.4,40.5,25.9,40.5z"/>
	</g>
</g>
<g>
	<g>
		<path class="st0" d="M10.6,46.1c0.5,0,0.9-0.4,0.9-0.9v-3.8c0-0.5-0.4-0.9-0.9-0.9H6.8c-0.5,0-0.9,0.4-0.9,0.9
			c0,0.5,0.4,0.9,0.9,0.9h2.8v1.9H6.8c-0.5,0-0.9,0.4-0.9,0.9v3.8c0,0.5,0.4,0.9,0.9,0.9h3.8c0.5,0,0.9-0.4,0.9-0.9
			c0-0.5-0.4-0.9-0.9-0.9H7.8v-1.9H10.6z"/>
	</g>
</g>
<g>
	<g>
		<path class="st0" d="M41.2,42.4h-3.8c-0.5,0-0.9,0.4-0.9,0.9c0,0.5,0.4,0.9,0.9,0.9h2.8v1.9h-2.8c-0.5,0-0.9,0.4-0.9,0.9
			c0,0.5,0.4,0.9,0.9,0.9h2.8v1.9h-2.8c-0.5,0-0.9,0.4-0.9,0.9c0,0.5,0.4,0.9,0.9,0.9h3.8c0.5,0,0.9-0.4,0.9-0.9v-7.5
			C42.1,42.8,41.7,42.4,41.2,42.4z"/>
	</g>
</g>
<g>
	<g>
		<path class="st0" d="M47.1,38.6H32.4v-8.7c0-0.5-0.4-0.9-0.9-0.9h-15c-0.5,0-0.9,0.4-0.9,0.9v5H0.9c-0.5,0-0.9,0.4-0.9,0.9v19
			c0,0.5,0.4,0.9,0.9,0.9h15.6h15h15.6c0.5,0,0.9-0.4,0.9-0.9V39.5C48,39,47.6,38.6,47.1,38.6z M15.6,53.9H1.9V36.7h13.7V53.9z
			 M30.6,53.9H17.4V30.8h13.1V53.9z M46.1,53.9H32.4V40.5h13.7V53.9z"/>
	</g>
</g>
<g>
	<g>
		<path class="st0" d="M27.8,49.9H24c-0.5,0-0.9,0.4-0.9,0.9c0,0.5,0.4,0.9,0.9,0.9h3.8c0.5,0,0.9-0.4,0.9-0.9
			C28.7,50.3,28.3,49.9,27.8,49.9z"/>
	</g>
</g>
<g>
	<g>
		<path class="st1" d="M13.2,27.2c0,0,3.5-12.5,11.7-20.5c2.3-2.2,7.1-3.7,6.8-3.5c-1.4,1.1-3.4-0.3-6.8,4.7c0,0,9.4-2.8,11.5-3
			c0,0-14.4,4.6-15.3,8.1c-1.4,1.6,8.2-2.3,11.7-3.3c0,0-0.4,2.2-7.8,4.1c-4.9-0.3-6.8,4.7-6.8,4.7s6.5-2.7,9.1-3.5
			c0,0,0.4,0.8,1.3,0.5c0,0-0.1,2.5-7.4,2.5c-0.7,0-1.8,0.7-2.6,1.4S13.2,27.2,13.2,27.2z M13.2,27.2"/>
		<g>
			<defs>
				<path id="SVGID_1_" d="M39.7,0c0,0-1.6,0.1-3.3,0.5c-3.4,0.6-6.3,2-8.9,4c-1.6,1.1-2.8,2-2.8,2l0.6-0.2c-4.2,3.9-7.1,9-9.1,13.2
					c0,0,0,0,0,0s-0.8,1.9-0.8,1.9c-1.4,3.3-2.1,5.7-2.1,5.7s1.5-2.3,3-4.4c0.8-1.2,1.2-1.7,1.7-2.4c0.9-0.8,1-0.8,2.6-1.4
					c1.6-0.6,3.1-0.9,4.6-1.2c1.1-0.3,2.6-0.6,3.4-1.5c0.4-0.4,0.8-1,0.9-1.6c0-0.1,0.1-0.3,0-0.5l0.1-0.4c0,0-6.2,1.5-6.2,1.5
					c0.5-0.3,2-1.1,3.1-1.3c1.6-0.2,1.5-0.2,1.8-0.2c4.8-0.6,4.6-4.1,4.6-4.1s-5.4,0.5-5.4,0.5c0.5-0.2,1.4-0.4,2.7-0.6
					c1.6-0.2,1.6-0.5,1.9-0.5c4.8-0.6,4.5-4.1,4.5-4.1l-5.1,0.4c0.5-0.3,1.2-0.9,2.4-1.1c0.3,0,0.5-0.1,0.6-0.1c-0.1,0-0.1,0,0,0
					C39.1,3.4,39.7,0,39.7,0z M29.4,5.5C29.4,5.5,29.4,5.5,29.4,5.5c0,0,0.1,0,0.1,0l0.3,0L29.4,5.5z"/>
			</defs>
			<clipPath id="SVGID_2_">
				<use xlink:href="#SVGID_1_"  style="overflow:visible;"/>
			</clipPath>
			<path class="st2" d="M12.3,22c-0.8,0.8,1.5-0.5,1.5-0.5l-0.6,4c0,0,0.1-1.4,2.6-2.3c2.3-0.8,4.2-4.2,5.3-4.4
				c1.6-0.2,3.1-0.8,3.4-0.9c4.8-0.5,4.8-3.8,4.8-3.8S16,15.3,12.3,22z"/>
			<path class="st2" d="M15.6,15.6c-2.9,2.2-2,1.8-2,1.8l0.7-0.4c-4.3,0.5,1.1,0.2,1.1,0.2l-0.6,0.5c0,0,3.1-1.6,4.8-2.2
				s3.4-1.2,4.9-1.5c1.8-0.4,3-0.7,3.3-0.7c4.8-0.6,5-3.5,5-3.5S21.9,10.9,15.6,15.6z"/>
			<path class="st2" d="M25.2,7.8c-2.6,1.1-6.9,4.1-6.9,4.1l-0.5-1.7c-2.6,0.2,2.7,0.8,2.7,0.8l-0.3,0.2c0,0-6.7,5.4-2.4,2.4
				s9.1-3.9,10.7-4.2c1.8-0.4,3.2-0.7,3.5-0.7c4.5-0.8,4.6-3.8,4.6-3.8S30.4,6.1,25.2,7.8z"/>
			<path class="st2" d="M22.8,8.5c0,0-1.2,0,0.9-0.7c2.8-1.7,4.5-2.2,6.8-2.8c4.6-0.8,6.7-4.3,6.7-4.3S35.3,1.3,32.7,2
				C28.7,2.9,22.8,8.5,22.8,8.5z"/>
		</g>
	</g>
</g>
</svg>
