<?xml version="1.0" encoding="utf-8"?>
<!-- Generator: Adobe Illustrator 20.1.0, SVG Export Plug-In . SVG Version: 6.00 Build 0)  -->
<svg version="1.1" id="Capa_1" xmlns="http://www.w3.org/2000/svg" xmlns:xlink="http://www.w3.org/1999/xlink" x="0px" y="0px"
	 viewBox="0 0 55 54.6" style="enable-background:new 0 0 55 54.6;" xml:space="preserve">
<style type="text/css">
	.st0{fill:#1EA782;}
</style>
<g>
	<g>
		<path class="st0" d="M13.2,29.7c-1.3,0-2.4,1.1-2.4,2.4c0,1.3,1.1,2.4,2.4,2.4c1.3,0,2.4-1.1,2.4-2.4
			C15.6,30.8,14.5,29.7,13.2,29.7z M13.2,33c-0.5,0-0.8-0.4-0.8-0.8c0-0.5,0.4-0.8,0.8-0.8c0.5,0,0.8,0.4,0.8,0.8
			C14,32.6,13.6,33,13.2,33z"/>
	</g>
</g>
<g>
	<g>
		<path class="st0" d="M35.3,45.3c-0.1-0.3-0.4-0.6-0.8-0.6h-4.8l-1.5-4.6c-0.1-0.3-0.4-0.6-0.8-0.6c-0.3,0-0.7,0.2-0.8,0.6
			l-1.5,4.6h-4.8c-0.3,0-0.7,0.2-0.8,0.6c-0.1,0.3,0,0.7,0.3,0.9l3.9,2.8l-1.5,4.6c-0.1,0.3,0,0.7,0.3,0.9c0.3,0.2,0.7,0.2,1,0
			l3.9-2.8l3.9,2.8c0.3,0.2,0.7,0.2,1,0c0.2-0.2,0.3-0.6,0.2-0.9L31.1,49l3.9-2.8C35.3,46,35.4,45.6,35.3,45.3z M29.7,48
			c-0.3,0.2-0.4,0.6-0.3,0.9l0.9,2.8L28,50c-0.3-0.2-0.7-0.2-0.9,0l-2.3,1.7l0.9-2.8c0.1-0.3,0-0.7-0.3-0.9l-2.3-1.7h2.9
			c0.3,0,0.7-0.2,0.8-0.6l0.9-2.8l0.9,2.8c0.1,0.3,0.4,0.6,0.8,0.6h2.9L29.7,48z"/>
	</g>
</g>
<g>
	<g>
		<path class="st0" d="M55,45.3c-0.1-0.3-0.4-0.6-0.8-0.6h-4.8l-1.5-4.6c-0.1-0.3-0.4-0.6-0.8-0.6c-0.3,0-0.7,0.2-0.8,0.6l-1.5,4.6
			h-4.8c-0.3,0-0.7,0.2-0.8,0.6c-0.1,0.3,0,0.7,0.3,0.9l3.9,2.8L42,53.6c-0.1,0.3,0,0.7,0.3,0.9c0.3,0.2,0.7,0.2,1,0l3.9-2.8
			l3.9,2.8c0.3,0.2,0.7,0.2,1,0c0.2-0.2,0.3-0.6,0.2-0.9L50.8,49l3.9-2.8C55,46,55.1,45.6,55,45.3z M49.4,48
			c-0.3,0.2-0.4,0.6-0.3,0.9l0.9,2.8L47.6,50c-0.3-0.2-0.7-0.2-0.9,0l-2.3,1.7l0.9-2.8c0.1-0.3,0-0.7-0.3-0.9l-2.3-1.7h2.9
			c0.3,0,0.7-0.2,0.8-0.6l0.9-2.8l0.9,2.8c0.1,0.3,0.4,0.6,0.8,0.6h2.9L49.4,48z"/>
	</g>
</g>
<g>
	<g>
		<path class="st0" d="M15.7,45.3c-0.1-0.3-0.4-0.6-0.8-0.6h-4.8l-1.5-4.6c-0.1-0.3-0.4-0.6-0.8-0.6c-0.3,0-0.7,0.2-0.8,0.6
			l-1.5,4.6H0.8c-0.3,0-0.7,0.2-0.8,0.6c-0.1,0.3,0,0.7,0.3,0.9L4.2,49l-1.5,4.6c-0.1,0.3,0,0.7,0.3,0.9c0.3,0.2,0.7,0.2,0.9,0
			l3.9-2.8l3.9,2.8c0.3,0.2,0.7,0.2,1,0c0.2-0.2,0.3-0.6,0.2-0.9L11.5,49l3.9-2.8C15.7,46,15.8,45.6,15.7,45.3z M10.1,48
			c-0.3,0.2-0.4,0.6-0.3,0.9l0.9,2.8L8.3,50c-0.3-0.2-0.7-0.2-0.9,0L5,51.7l0.9-2.8c0.1-0.3,0-0.7-0.3-0.9l-2.3-1.7h2.9
			c0.3,0,0.7-0.2,0.8-0.6L7.9,43l0.9,2.8c0.1,0.3,0.4,0.6,0.8,0.6h2.9L10.1,48z"/>
	</g>
</g>
<g>
	<g>
		<path class="st0" d="M48.5,20.1c0.8-0.7,1.4-1.7,1.4-2.9c0-2-1.6-3.7-3.7-3.7h-13c0.4-0.9,0.9-2.2,1.1-4.1
			c0.6-4.3-0.3-6.6-1.2-7.8c-0.8-1-1.8-1.6-2.9-1.7c-1-0.1-1.9,0.7-1.9,1.6c-0.2,1.6-0.7,5.8-1.5,7.4c-2,4.1-6.9,6.5-8.4,7.2
			c-0.5-0.5-1.2-0.7-1.9-0.7H9.9c-1.7,0-3,1.3-3,3v16.4c0,1.7,1.3,3,3,3h6.6c0.9,0,1.7-0.4,2.2-1c0.9,0.5,2.2,1.1,4.1,1.1h21.1
			c2,0,3.7-1.6,3.7-3.7c0-0.9-0.3-1.8-0.9-2.4c1.2-0.6,2.1-1.8,2.1-3.3c0-0.9-0.3-1.8-0.9-2.4c1.2-0.6,2.1-1.8,2.1-3.3
			C49.8,21.8,49.3,20.8,48.5,20.1z M16.4,36.3H9.9c-0.8,0-1.4-0.6-1.4-1.4V18.5c0-0.8,0.6-1.4,1.4-1.4h6.6c0.4,0,0.7,0.2,1,0.4v18
			c0,0.1,0,0.2,0.1,0.3C17.2,36.1,16.9,36.3,16.4,36.3z M42.8,20.9h3.4c1.1,0,2,0.9,2,2c0,1.1-0.9,2-2,2h-3.4
			c-0.4,0-0.8,0.4-0.8,0.8s0.4,0.8,0.8,0.8H45c1.1,0,2,0.9,2,2s-0.9,2-2,2h-2.9c-0.4,0-0.8,0.4-0.8,0.8c0,0.4,0.4,0.8,0.8,0.8h1.7
			c1.1,0,2,0.9,2,2c0,1.1-0.9,2-2,2H22.8c-1.7,0-2.8-0.6-3.4-1c0-0.2,0.1-0.4,0.1-0.5V18.5c0-0.3,0-0.6-0.1-0.9
			c1.9-0.9,6.7-3.4,8.9-7.8c1.1-2.2,1.6-7.8,1.7-8c0,0,0-0.1,0-0.1c0,0,0-0.1,0-0.1c0,0,0.1,0,0.1,0c0.5,0.1,1.2,0.3,1.9,1.1
			c0.7,0.9,1.4,2.8,0.9,6.6c-0.5,3.2-1.5,4.6-1.5,4.6c-0.4,0.5,0,1.3,0.6,1.3h14.4c1.1,0,2,0.9,2,2c0,1.1-0.9,2-2,2h-3.4
			c-0.4,0-0.8,0.4-0.8,0.8C42,20.6,42.3,20.9,42.8,20.9z"/>
	</g>
</g>
</svg>
