<?xml version="1.0" encoding="utf-8"?>
<!-- Generator: Adobe Illustrator 20.1.0, SVG Export Plug-In . SVG Version: 6.00 Build 0)  -->
<svg version="1.1" id="Capa_1" xmlns="http://www.w3.org/2000/svg" xmlns:xlink="http://www.w3.org/1999/xlink" x="0px" y="0px"
	 viewBox="0 0 55 52.2" style="enable-background:new 0 0 55 52.2;" xml:space="preserve">
<style type="text/css">
	.st0{fill:#1EA782;}
	.st1{fill:#006053;}
	.st2{clip-path:url(#SVGID_2_);fill:#1AB192;}
</style>
<g>
	<g>
		<path class="st0" d="M35.3,42.9c-0.1-0.3-0.4-0.6-0.8-0.6h-4.8l-1.5-4.6c-0.1-0.3-0.4-0.6-0.8-0.6c-0.3,0-0.7,0.2-0.8,0.6
			l-1.5,4.6h-4.8c-0.3,0-0.7,0.2-0.8,0.6c-0.1,0.3,0,0.7,0.3,0.9l3.9,2.8l-1.5,4.6c-0.1,0.3,0,0.7,0.3,0.9c0.3,0.2,0.7,0.2,1,0
			l3.9-2.8l3.9,2.8c0.3,0.2,0.7,0.2,1,0c0.2-0.2,0.3-0.6,0.2-0.9l-1.5-4.6l3.9-2.8C35.3,43.6,35.4,43.2,35.3,42.9z M29.7,45.7
			c-0.3,0.2-0.4,0.6-0.3,0.9l0.9,2.8L28,47.6c-0.3-0.2-0.7-0.2-0.9,0l-2.3,1.7l0.9-2.8c0.1-0.3,0-0.7-0.3-0.9L22.9,44h2.9
			c0.3,0,0.7-0.2,0.8-0.6l0.9-2.8l0.9,2.8c0.1,0.3,0.4,0.6,0.8,0.6h2.9L29.7,45.7z"/>
	</g>
</g>
<g>
	<g>
		<path class="st0" d="M55,42.9c-0.1-0.3-0.4-0.6-0.8-0.6h-4.8l-1.5-4.6c-0.1-0.3-0.4-0.6-0.8-0.6c-0.3,0-0.7,0.2-0.8,0.6l-1.5,4.6
			h-4.8c-0.3,0-0.7,0.2-0.8,0.6c-0.1,0.3,0,0.7,0.3,0.9l3.9,2.8L42,51.2c-0.1,0.3,0,0.7,0.3,0.9c0.3,0.2,0.7,0.2,1,0l3.9-2.8
			l3.9,2.8c0.3,0.2,0.7,0.2,1,0c0.2-0.2,0.3-0.6,0.2-0.9l-1.5-4.6l3.9-2.8C55,43.6,55.1,43.2,55,42.9z M49.4,45.7
			c-0.3,0.2-0.4,0.6-0.3,0.9l0.9,2.8l-2.3-1.7c-0.3-0.2-0.7-0.2-0.9,0l-2.3,1.7l0.9-2.8c0.1-0.3,0-0.7-0.3-0.9L42.6,44h2.9
			c0.3,0,0.7-0.2,0.8-0.6l0.9-2.8l0.9,2.8c0.1,0.3,0.4,0.6,0.8,0.6h2.9L49.4,45.7z"/>
	</g>
</g>
<g>
	<g>
		<path class="st0" d="M15.7,42.9c-0.1-0.3-0.4-0.6-0.8-0.6h-4.8l-1.5-4.6c-0.1-0.3-0.4-0.6-0.8-0.6c-0.3,0-0.7,0.2-0.8,0.6
			l-1.5,4.6H0.8c-0.3,0-0.7,0.2-0.8,0.6c-0.1,0.3,0,0.7,0.3,0.9l3.9,2.8l-1.5,4.6c-0.1,0.3,0,0.7,0.3,0.9c0.3,0.2,0.7,0.2,0.9,0
			l3.9-2.8l3.9,2.8c0.3,0.2,0.7,0.2,1,0c0.2-0.2,0.3-0.6,0.2-0.9l-1.5-4.6l3.9-2.8C15.7,43.6,15.8,43.2,15.7,42.9z M10.1,45.7
			c-0.3,0.2-0.4,0.6-0.3,0.9l0.9,2.8l-2.3-1.7c-0.3-0.2-0.7-0.2-0.9,0L5,49.3l0.9-2.8c0.1-0.3,0-0.7-0.3-0.9L3.3,44h2.9
			c0.3,0,0.7-0.2,0.8-0.6l0.9-2.8l0.9,2.8C8.9,43.7,9.2,44,9.5,44h2.9L10.1,45.7z"/>
	</g>
</g>
<g>
	<g>
		<path class="st1" d="M12.6,38c0,0,4.9-17.5,16.3-28.7c3.2-3.1,10-5.2,9.5-4.8c-1.9,1.5-4.7-0.4-9.5,6.6c0,0,13.1-3.9,16.1-4.2
			c0,0-20.1,6.5-21.4,11.3c-2,2.2,11.5-3.2,16.4-4.6c0,0-0.6,3.1-10.9,5.7c-6.8-0.5-9.6,6.5-9.6,6.5s9.1-3.8,12.8-4.8
			c0,0,0.6,1.1,1.8,0.6c0,0-0.2,3.4-10.3,3.5c-1,0-2.6,0.9-3.6,2C19.2,28,12.6,38,12.6,38z M12.6,38"/>
		<g>
			<defs>
				<path id="SVGID_1_" d="M49.5,0c0,0-2.2,0.2-4.7,0.7C40.2,1.5,36,3.5,32.4,6.2c-2.2,1.5-3.9,2.9-3.9,2.9l0.8-0.2
					c-5.8,5.5-10,12.6-12.7,18.4c0,0,0,0,0,0S15.5,30,15.5,30c-2,4.7-2.9,8-2.9,8s2.1-3.2,4.1-6.1c1.2-1.7,1.7-2.4,2.4-3.3
					c1.3-1.2,1.4-1.1,3.6-2c2.2-0.9,4.3-1.2,6.5-1.7c1.6-0.4,3.7-0.9,4.8-2.1c0.6-0.6,1.1-1.5,1.2-2.2c0-0.2,0.1-0.4,0.1-0.6
					l0.1-0.6c0,0-8.7,2.1-8.7,2.1c0.7-0.4,2.8-1.6,4.4-1.8c2.2-0.3,2.1-0.3,2.5-0.3c6.8-0.9,6.5-5.7,6.5-5.7s-7.6,0.6-7.6,0.6
					c0.7-0.3,2-0.5,3.8-0.8c2.2-0.3,2.2-0.7,2.6-0.7c6.8-0.9,6.3-5.8,6.3-5.8L38,7.5c0.7-0.4,1.7-1.3,3.4-1.5
					c0.4-0.1,0.7-0.1,0.9-0.1c-0.1,0-0.2,0-0.1,0C48.7,4.7,49.5,0,49.5,0z M35.1,7.7C35.1,7.7,35.1,7.7,35.1,7.7c0,0,0.1,0,0.2-0.1
					l0.4,0L35.1,7.7z"/>
			</defs>
			<clipPath id="SVGID_2_">
				<use xlink:href="#SVGID_1_"  style="overflow:visible;"/>
			</clipPath>
			<path class="st2" d="M11.2,30.8c-1.2,1.2,2.2-0.6,2.2-0.6l-0.8,5.6c0,0,0.2-2,3.7-3.2c3.3-1.1,5.9-5.9,7.4-6.1
				c2.3-0.3,4.3-1.1,4.8-1.2c6.8-0.7,6.7-5.3,6.7-5.3S16.4,21.4,11.2,30.8z"/>
			<path class="st2" d="M15.9,21.8c-4.1,3.1-2.8,2.5-2.8,2.5l1-0.5c-6,0.7,1.5,0.2,1.5,0.2l-0.9,0.7c0,0,4.4-2.3,6.7-3.1
				c2.4-0.8,4.7-1.6,6.9-2.1c2.6-0.6,4.2-0.9,4.6-1c6.8-0.9,7-5,7-5S24.7,15.2,15.9,21.8z"/>
			<path class="st2" d="M29.2,11c-3.6,1.5-9.6,5.7-9.6,5.7L19,14.2c-3.6,0.3,3.7,1.1,3.7,1.1l-0.4,0.3c0,0-9.4,7.6-3.4,3.4
				s12.7-5.5,14.9-5.9c2.6-0.5,4.4-0.9,4.9-1c6.3-1.1,6.4-5.3,6.4-5.3S36.6,8.6,29.2,11z"/>
			<path class="st2" d="M25.9,11.9c0,0-1.7-0.1,1.3-1c3.9-2.4,6.3-3.1,9.6-3.9c6.5-1.1,9.4-6,9.4-6s-2.7,0.8-6.4,1.8
				C34.1,4.1,25.9,11.9,25.9,11.9z"/>
		</g>
	</g>
</g>
</svg>
