<?xml version="1.0" ?><svg style="enable-background:new 0 0 50 50;" version="1.1" viewBox="0 0 50 50" xml:space="preserve" xmlns="http://www.w3.org/2000/svg" xmlns:xlink="http://www.w3.org/1999/xlink"><g id="Layer_1" fill="#929292"><path d="M25,1C11.767,1,1,11.767,1,25s10.767,24,24,24s24-10.767,24-24S38.233,1,25,1z M25,47C12.869,47,3,37.131,3,25   S12.869,3,25,3s22,9.869,22,22S37.131,47,25,47z"/><path d="M27.929,9h-4.857C18.621,9,15,12.621,15,17.071V20h2v-2.929C17,13.724,19.724,11,23.071,11h4.857   C31.276,11,34,13.724,34,17.071c0,1.622-0.632,3.146-1.778,4.293L24,29.586V35h2v-4.586l7.636-7.636   C35.16,21.254,36,19.227,36,17.071C36,12.621,32.379,9,27.929,9z"/><rect height="3" width="2" x="24" y="38"/></g><g/></svg>