<svg xmlns="http://www.w3.org/2000/svg" viewBox="0 0 23.63 23.63">
	<path d="M11.81 0a11.81 11.81 0 1 0 0 23.63 11.81 11.81 0 0 0 0-23.63zm2.46 18.3c-.6.25-1.1.43-1.45.55-.37.13-.79.2-1.27.2-.73 0-1.3-.19-1.71-.55s-.61-.8-.61-1.36a4.97 4.97 0 0 1 .19-1.42l.76-2.69.17-.73c.05-.23.07-.44.07-.63 0-.34-.07-.58-.21-.72-.15-.13-.42-.2-.82-.2-.2 0-.4.03-.6.09-.2.06-.39.12-.53.18l.2-.83c.5-.2.97-.38 1.43-.52.45-.15.88-.22 1.29-.22.73 0 1.3.18 1.7.53.39.35.59.81.59 1.37a8 8 0 0 1-.2 1.43l-.75 2.68a7.58 7.58 0 0 0-.24 1.36c0 .36.07.6.23.73s.44.2.83.2a3.56 3.56 0 0 0 1.13-.27l-.2.83zm-.13-10.87c-.36.33-.78.5-1.28.5s-.92-.17-1.28-.5a1.57 1.57 0 0 1-.53-1.2c0-.46.18-.86.53-1.19.36-.33.79-.5 1.28-.5.5 0 .93.17 1.28.5.35.33.53.73.53 1.2 0 .46-.18.86-.53 1.19z"/>
</svg>